<svg width="19" height="17" viewBox="0 0 19 17" fill="none" xmlns="http://www.w3.org/2000/svg">
<path d="M0.914129 17C0.559277 17 0.296996 16.8426 0.127284 16.5278C-0.0424279 16.213 -0.0424279 15.8981 0.127284 15.5833L8.69001 0.472222C8.85972 0.157407 9.12972 0 9.5 0C9.87028 0 10.1403 0.157407 10.31 0.472222L18.8727 15.5833C19.0424 15.8981 19.0424 16.213 18.8727 16.5278C18.703 16.8426 18.4407 17 18.0859 17H0.914129ZM9.5 6.61111C9.23772 6.61111 9.01802 6.70146 8.8409 6.88217C8.66317 7.0635 8.5743 7.28796 8.5743 7.55556V10.3889C8.5743 10.6565 8.66317 10.8806 8.8409 11.0613C9.01802 11.2427 9.23772 11.3333 9.5 11.3333C9.76228 11.3333 9.98229 11.2427 10.16 11.0613C10.3371 10.8806 10.4257 10.6565 10.4257 10.3889V7.55556C10.4257 7.28796 10.3371 7.0635 10.16 6.88217C9.98229 6.70146 9.76228 6.61111 9.5 6.61111ZM9.5 14.1667C9.76228 14.1667 9.98229 14.076 10.16 13.8947C10.3371 13.714 10.4257 13.4898 10.4257 13.2222C10.4257 12.9546 10.3371 12.7305 10.16 12.5498C9.98229 12.3684 9.76228 12.2778 9.5 12.2778C9.23772 12.2778 9.01802 12.3684 8.8409 12.5498C8.66317 12.7305 8.5743 12.9546 8.5743 13.2222C8.5743 13.4898 8.66317 13.714 8.8409 13.8947C9.01802 14.076 9.23772 14.1667 9.5 14.1667Z" fill="#FD5732"/>
</svg>
